<?xml version="1.0" encoding="UTF-8"?>
<svg width="26px" height="26px" viewBox="0 0 26 26" version="1.1" xmlns="http://www.w3.org/2000/svg" xmlns:xlink="http://www.w3.org/1999/xlink">
    <title>add_to_cart_red</title>
    <g id="Page-1" stroke="none" stroke-width="1" fill="none" fill-rule="evenodd">
        <g id="add_to_cart_red" fill="#D82318" fill-rule="nonzero">
            <path d="M7.8,20.8 C6.37,20.8 5.2,21.97 5.2,23.4 C5.2,24.83 6.37,26 7.8,26 C9.23,26 10.4,24.83 10.4,23.4 C10.4,21.97 9.23,20.8 7.8,20.8 Z M0,0 L0,2.6 L2.6,2.6 L7.28,12.48 L5.46,15.6 C5.33,15.99 5.2,16.51 5.2,16.9 C5.2,18.33 6.37,19.5 7.8,19.5 L23.4,19.5 L23.4,16.9 L8.32,16.9 C8.19,16.9 8.06,16.77 8.06,16.64 L8.06,16.509949 L9.23,14.299949 L18.85,14.299949 C19.89,14.299949 20.67,13.779949 21.06,12.999949 L25.74,4.55 C26,4.29 26,4.16 26,3.9 C26,3.12 25.48,2.6 24.7,2.6 L5.46,2.6 L4.29,0 L0,0 Z M20.8,20.8 C19.37,20.8 18.2,21.97 18.2,23.4 C18.2,24.83 19.37,26 20.8,26 C22.23,26 23.4,24.83 23.4,23.4 C23.4,21.97 22.23,20.8 20.8,20.8 Z" id="Shape"></path>
        </g>
    </g>
</svg>