<?xml version="1.0" encoding="UTF-8"?>
<svg width="18px" height="17px" viewBox="0 0 18 17" version="1.1" xmlns="http://www.w3.org/2000/svg" xmlns:xlink="http://www.w3.org/1999/xlink">
    <!-- Generator: Sketch 63 (92445) - https://sketch.com -->
    <title>Group 10</title>
    <desc>Created with Sketch.</desc>
    <g id="Mobile" stroke="none" stroke-width="1" fill="none" fill-rule="evenodd">
        <g id="Group-10" fill="#FFFFFF" fill-rule="nonzero">
            <path d="M17.4320957,13.5177276 L15.4612479,12.2612036 L13.7092172,11.1444962 C13.3710957,10.9293758 12.9166907,10.9998983 12.6670752,11.3062931 L11.5829544,12.6390174 C11.3500748,12.9282132 10.9311555,13.0113196 10.5972006,12.8345151 C9.86158316,12.4432209 8.99169626,12.0748035 7.07234098,10.2370657 C5.15298569,8.3993279 4.76524662,7.56985736 4.35604943,6.86642437 C4.1711555,6.54708053 4.25806433,6.14648962 4.56049178,5.92383213 L5.95419274,4.88714336 C6.27457139,4.64848216 6.34835536,4.21395806 6.12339239,3.89059669 L4.99145957,2.26681729 L3.6415776,0.330567022 C3.41182302,0.000996746303 2.95189719,-0.0979473823 2.5966925,0.105751352 L1.03990294,0.998838323 C0.619178095,1.2358726 0.309910439,1.61863364 0.176161813,2.06776694 C-0.249562981,3.55202848 -0.335395433,6.82624907 5.1520482,12.0736082 C10.6394918,17.3209672 14.0632067,17.2386245 15.6153782,16.8314926 C16.0850609,16.7036289 16.4853346,16.4078922 16.733214,16.0055416 L17.6671627,14.5168973 C17.8802161,14.1772002 17.7767449,13.73743 17.4320957,13.5177276 Z" id="Path"></path>
            <path d="M9.19997886,2.58100608 C12.1195795,2.58403369 14.4856183,4.79333768 14.4888607,7.51960709 C14.4888607,7.68003782 14.628141,7.81012658 14.7999859,7.81012658 C14.9717955,7.81012658 15.1111111,7.68007073 15.1111111,7.51960709 C15.1075163,4.47260785 12.4631283,2.0033567 9.2000141,2 C9.02820448,2 8.88888889,2.13005585 8.88888889,2.29051949 C8.88888889,2.45091732 9.02813399,2.58100608 9.19997886,2.58100608 Z" id="Path"></path>
            <path d="M9.19048839,4.58411043 C11.0217795,4.58619465 12.5057598,6.02324658 12.5079121,7.79655238 C12.5079121,7.95783117 12.6429281,8.08860759 12.8095116,8.08860759 C12.9760609,8.08860759 13.1111111,7.95786425 13.1111111,7.79655238 C13.1086171,5.70078824 11.3547757,4.00241505 9.19048839,4 C9.02393905,4 8.88888889,4.13074334 8.88888889,4.29205521 C8.88888889,4.45336709 9.02390489,4.58411043 9.19048839,4.58411043 Z" id="Path"></path>
            <path d="M9.19442282,6.59176377 C10.0377823,6.5927358 10.7211925,7.25451909 10.7221963,8.07118996 C10.7221963,8.23459117 10.8589891,8.36708861 11.0277648,8.36708861 C11.1965059,8.36708861 11.3333333,8.23462469 11.3333333,8.07118996 C11.3319834,6.92785074 10.3751607,6.00130721 9.19445743,6 C9.02571631,6 8.88888889,6.13246392 8.88888889,6.29589865 C8.88885428,6.45929986 9.02564708,6.59176377 9.19442282,6.59176377 Z" id="Path"></path>
        </g>
    </g>
</svg>
