<?xml version="1.0" encoding="UTF-8"?>
<svg width="17px" height="19px" viewBox="0 0 17 19" version="1.1" xmlns="http://www.w3.org/2000/svg" xmlns:xlink="http://www.w3.org/1999/xlink">
    <title>Shape</title>
    <g id="Desktop" stroke="none" stroke-width="1" fill="none" fill-rule="evenodd">
        <g id="MainPage" transform="translate(-1292.000000, -132.000000)" fill="#FFFFFF" fill-rule="nonzero">
            <path d="M1308.55319,148.284053 L1304.81309,144.387511 C1305.86255,143.077033 1306.49334,141.392409 1306.49334,139.55076 C1306.4952,135.377002 1303.25193,132 1299.2476,132 C1295.24142,132 1292,135.377002 1292,139.55076 C1292,143.722579 1295.24142,147.10152 1299.2476,147.10152 C1300.38452,147.10152 1301.46189,146.828181 1302.42017,146.343536 C1302.47599,146.43465 1302.54298,146.519947 1302.61927,146.599429 L1306.39658,150.534741 C1306.99202,151.155086 1307.95961,151.155086 1308.55505,150.534741 C1309.14863,149.912458 1309.14863,148.904398 1308.55319,148.284053 Z M1293.52581,139.55076 C1293.52581,136.259055 1296.08806,133.589634 1299.2476,133.589634 C1302.40715,133.589634 1304.96939,136.259055 1304.96939,139.55076 C1304.96939,142.842465 1302.40529,145.511887 1299.2476,145.511887 C1296.08806,145.511887 1293.52581,142.842465 1293.52581,139.55076 Z" id="Shape"></path>
        </g>
    </g>
</svg>